<svg width="13" height="13" viewBox="0 0 13 13" fill="none" xmlns="http://www.w3.org/2000/svg">
<path fill-rule="evenodd" clip-rule="evenodd" d="M11.8279 0.761098C10.8641 -0.202724 9.30143 -0.202725 8.3376 0.761097L1.26959 7.82911C0.800746 8.29795 0.537354 8.93384 0.537354 9.59688V11.5517V12.0517H1.03735H2.99213C3.65517 12.0517 4.29105 11.7883 4.75989 11.3194L11.8279 4.25141C12.7917 3.28758 12.7917 1.72492 11.8279 0.761098ZM9.04471 1.4682C9.61801 0.894906 10.5475 0.894907 11.1208 1.4682C11.6941 2.0415 11.6941 2.971 11.1208 3.5443L10.7786 3.88652L8.70248 1.81043L9.04471 1.4682ZM7.99538 2.51754L1.97669 8.53622C1.69539 8.81753 1.53735 9.19906 1.53735 9.59688V11.0517H2.99213C3.38995 11.0517 3.77148 10.8936 4.05279 10.6123L10.0715 4.59363L7.99538 2.51754Z" fill="#161616"/>
</svg>
